<svg width="128" height="129" viewBox="0 0 128 129" fill="none" xmlns="http://www.w3.org/2000/svg">
<path d="M63.8001 4.38281C63.8001 2.17367 65.5927 0.369748 67.7975 0.508161C75.0627 0.964255 82.2065 2.6611 88.9163 5.53456C96.8535 8.93368 104.018 13.9085 109.976 20.1578C115.934 26.4071 120.562 33.8008 123.579 41.891C126.596 49.9812 127.939 58.5996 127.528 67.2242C127.116 75.8488 124.958 84.3001 121.184 92.0662C117.411 99.8324 112.1 106.752 105.574 112.405C99.0476 118.059 91.4417 122.329 83.2169 124.956C76.264 127.178 68.9911 128.187 61.7154 127.949C59.5075 127.877 57.8948 125.91 58.1052 123.711L60.4132 99.586C60.6235 97.3869 62.5813 95.8014 64.7894 95.7321C67.7102 95.6406 70.6106 95.1436 73.4065 94.2503C77.4757 92.9503 81.2387 90.8377 84.4675 88.0407C87.6963 85.2436 90.3238 81.8203 92.1908 77.978C94.0578 74.1358 95.1254 69.9545 95.3291 65.6875C95.5327 61.4205 94.8681 57.1566 93.3755 53.154C91.8829 49.1514 89.5934 45.4934 86.6456 42.4016C83.6978 39.3098 80.1532 36.8485 76.2262 35.1668C73.5281 34.0113 70.6882 33.2404 67.7894 32.8711C65.598 32.5919 63.8001 30.8271 63.8001 28.618V4.38281Z" fill="#92BFFF"/>
<path d="M5.78723 78.6935C3.64412 79.2295 2.32913 81.4065 2.99839 83.5118C6.46577 94.4192 12.8129 104.219 21.402 111.857C29.9911 119.496 40.4647 124.655 51.7024 126.825C53.8714 127.244 55.8799 125.684 56.1621 123.493L59.2575 99.4564C59.5397 97.2653 57.9818 95.2854 55.844 94.7286C51.0331 93.4755 46.5667 91.0983 42.8237 87.7696C39.0807 84.4408 36.1983 80.2826 34.3921 75.6509C33.5895 73.5927 31.4412 72.2767 29.2981 72.8127L5.78723 78.6935Z" fill="#4D5F8B"/>
<path d="M62.0548 4.40828C61.9903 2.20008 60.1458 0.449247 57.9459 0.651946C49.679 1.41369 41.6266 3.78305 34.2464 7.64059C26.8661 11.4981 20.3241 16.757 14.9794 23.1098C13.5572 24.8002 13.9418 27.3142 15.7181 28.6277L35.2042 43.0371C36.9805 44.3506 39.4684 43.9543 40.9959 42.3583C43.3645 39.8833 46.1266 37.8039 49.1784 36.2087C52.2303 34.6136 55.5143 33.5328 58.8986 33.0008C61.0809 32.6578 62.8265 30.8413 62.7621 28.6331L62.0548 4.40828Z" fill="#FFE67F"/>
<path d="M14.7675 30.5677C12.9561 29.303 10.4508 29.7402 9.3022 31.6273C5.64963 37.6279 3.00829 44.1987 1.49335 51.077C-0.0215916 57.9553 -0.385183 65.0278 0.408437 72.0077C0.658011 74.2026 2.74781 75.6519 4.92286 75.2653L28.784 71.024C30.9591 70.6374 32.3819 68.5584 32.2733 66.3519C32.1358 63.5586 32.3699 60.7534 32.974 58.0106C33.5781 55.2678 34.5442 52.6238 35.8425 50.1467C36.8681 48.19 36.4503 45.7056 34.6389 44.441L14.7675 30.5677Z" fill="#94E9B8"/>
</svg>
